<svg xmlns="http://www.w3.org/2000/svg" xmlns:xlink="http://www.w3.org/1999/xlink" viewBox="0 0 1993.02 1357.81"><defs><style>.cls-1{mask:url(#mask);}.cls-19,.cls-2{mix-blend-mode:multiply;}.cls-2{fill:url(#radial-gradient);}.cls-3{fill:none;}.cls-4{isolation:isolate;}.cls-5{clip-path:url(#clip-path);}.cls-6{fill:#fff;}.cls-7{clip-path:url(#clip-path-2);}.cls-8{clip-path:url(#clip-path-3);}.cls-9{fill:#59183c;}.cls-10{fill:#701e47;}.cls-11{fill:#892050;}.cls-12{fill:#a52659;}.cls-13{fill:#bc2b5e;}.cls-14{fill:#d02f61;}.cls-15{fill:#ea385f;}.cls-16{fill:#f5647a;}.cls-17{fill:#fc8496;}.cls-18{mask:url(#mask-2);}.cls-19{fill:url(#radial-gradient-2);}.cls-20{filter:url(#luminosity-noclip-2);}.cls-21{filter:url(#luminosity-noclip);}</style><filter id="luminosity-noclip" x="624.88" y="-8568.88" width="701.74" height="32766" filterUnits="userSpaceOnUse" color-interpolation-filters="sRGB"><feFlood flood-color="#fff" result="bg"/><feBlend in="SourceGraphic" in2="bg"/></filter><mask id="mask" x="624.88" y="-8568.88" width="701.74" height="32766" maskUnits="userSpaceOnUse"><g class="cls-21"/></mask><radialGradient id="radial-gradient" cx="932.6" cy="403.8" r="808.3" gradientTransform="translate(-14.72) scale(1.01 1)" gradientUnits="userSpaceOnUse"><stop offset="0.17"/><stop offset="0.26" stop-color="#0f0f0f"/><stop offset="0.42" stop-color="#373737"/><stop offset="0.64" stop-color="#767676"/><stop offset="0.8" stop-color="#a6a6a6"/><stop offset="0.8" stop-color="#aaa"/><stop offset="0.86" stop-color="#c9c9c9"/><stop offset="0.91" stop-color="#e0e0e0"/><stop offset="0.96" stop-color="#ededed"/><stop offset="1" stop-color="#f2f2f2"/></radialGradient><clipPath id="clip-path" transform="translate(46.67 374.71)"><polygon class="cls-3" points="0 0 0 753.75 523.44 753.75 541.77 753.75 567.38 753.75 607.03 753.75 680.05 753.75 774.51 753.75 972.63 753.75 972.63 753.75 1045.7 753.75 1199.39 753.75 1206 753.75 1206 751.13 1206 695.03 1206 364.37 1206 349.8 1206 298.85 1206 233.14 1206 197.66 1206 193.85 1206 0 0 0"/></clipPath><clipPath id="clip-path-2" transform="translate(46.67 374.71)"><path class="cls-3" d="M1332.29,592.26c-2.88-45.32-2.82-90.79-8.35-135.93-5.57-45.54-13.92-90.66-19.13-136.28-5.61-49.09-13.39-97.2-23.3-145.59-7.11-34.72-12.63-70.51-25-103.86-5.56-15-13-33.93-20.6-47C1210.5-19.9,1112.56-55.3,1071-65.76q-15.3-3.85-30.56-6.69c-16.34-3.06-32.75-5.32-49.44-6.88-22.32-2.08-43-6.18-65.45-3.75-2,.22-4,.46-6,.7-33,3.89-64.95,10-97.69,12a294.64,294.64,0,0,1-43.12-.33c-12.12-1-22.29-4.91-34.54-4.15-11.28.71-22.47,3.32-33.75,4.12-10.58.75-25.47-2.65-40.37,5.8,7.72,18.74,17.27,35.2,19.62,55.87A281.43,281.43,0,0,1,691,35.15c-.39,8.53-1.12,17-2.14,25.52a426.49,426.49,0,0,1-9.31,50.3c-6.29,25.67-15.49,50.59-23.19,75.83-5.89,19.26-10.91,38.7-13.1,58.8-6.36,58.29,4.82,118.69,19.83,175A786.87,786.87,0,0,1,684.88,538.8a951.57,951.57,0,0,1,5.36,96.87q.19,32.19-1.49,64.42c-.15,3-.32,5.95-.49,8.92-1.74,30-2.49,53.69.66,85.41,1.22,12.2,4.68,56.12,16.51,73.94,3.42,5.16,10.56,10.31,15.79,13.88,27.13,18.51,64.67,22.2,96.44,26,29.68,3.59,59,6.47,88.33,8.2,28.62,1.69,57.31,2.29,86.5,1.36,55.89-1.78,114.34-.52,169.09-12.76,57.05-12.77,120.86-26.45,149.05-82.35,13.59-27,16.58-56.3,18.85-85.89C1333.21,688.27,1335.38,640.87,1332.29,592.26Z"/></clipPath><clipPath id="clip-path-3" transform="translate(46.67 374.71)"><path class="cls-3" d="M670.06-64.95c7.72,18.74,17.27,35.2,19.62,55.87,4.54,40-.55,81.15-10.09,120.05-11.1,45.26-31.22,88.21-36.29,134.63-6.36,58.29,4.82,118.69,19.83,175C688.24,514.72,693.9,612,688.26,709c-1.74,30-2.49,53.69.66,85.41,1.22,12.2,4.68,56.12,16.51,73.94,3.42,5.16,10.56,10.31,15.79,13.88,27.13,18.51,64.67,22.2,96.44,26,58.63,7.08,115.72,11.44,174.83,9.56,55.89-1.78,114.34-.52,169.09-12.76,57.05-12.77,120.86-26.45,149.05-82.35,13.59-27,16.58-56.3,18.85-85.89,3.73-48.56,5.9-96,2.81-144.57-2.88-45.32-2.82-90.79-8.35-135.93-5.57-45.54-13.92-90.66-19.13-136.28-5.61-49.09-13.39-97.2-23.3-145.59-7.11-34.72-12.63-70.51-25-103.86-5.57-15-13-33.93-20.6-47C1210.5-19.9,1112.56-55.3,1071-65.76a525,525,0,0,0-80-13.57c-22.32-2.08-43-6.18-65.45-3.75C876-77.72,829.24-66.36,778.72-70.72c-12.12-1-22.29-4.91-34.54-4.15-11.28.71-22.47,3.32-33.75,4.12C699.85-70,685-73.4,670.06-64.95Z"/></clipPath><filter id="luminosity-noclip-2" x="624.88" y="-95" width="701.74" height="1024.45" filterUnits="userSpaceOnUse" color-interpolation-filters="sRGB"><feFlood flood-color="#fff" result="bg"/><feBlend in="SourceGraphic" in2="bg"/></filter><mask id="mask-2" x="671.54" y="279.71" width="701.74" height="1024.45" maskUnits="userSpaceOnUse"><g class="cls-20"><g transform="translate(46.67 374.71)"><g class="cls-1"><path class="cls-2" d="M1325.12,596.17c-2.93-46.34-2.87-92.82-8.5-139-5.67-46.55-14.17-92.68-19.47-139.32-5.7-50.18-13.62-99.36-23.7-148.84C1266.22,133.55,1260.6,97,1248,62.87c-5.66-15.32-13.2-34.69-21-48-25.84-44.48-125.49-80.67-167.76-91.36-7.59-1.91-15.16-3.62-22.74-5.18a543.39,543.39,0,0,0-58.66-8.68c-21.39-2-41.28-5.84-62.62-4.2-1.32.1-2.64.22-4,.36C878.72-90.7,847.33-84.63,815.34-82a312.82,312.82,0,0,1-53.49.35c-12.33-1.07-22.69-5-35.15-4.24-11.48.72-22.86,3.4-34.34,4.21-10.76.77-25.92-2.71-41.08,5.93,7.86,19.16,17.58,36,20,57.12a284,284,0,0,1,1.62,38.38c-.16,6.93-.57,13.86-1.17,20.78A421.69,421.69,0,0,1,661,104.14c-6.61,27.11-16.37,53.41-24.36,80.09l1.24-.21c-5,17.28-9.17,34.74-11.13,52.72-6.47,59.59,4.9,121.33,20.18,178.89a811.82,811.82,0,0,1,22.78,127,32.14,32.14,0,0,0-3.09,1.14,982.9,982.9,0,0,1,5.23,98.76q.13,33.63-1.72,67.3c-.1,1.89-.19,3.79-.3,5.68-1.78,30.65-2.54,54.88.67,87.31,1.23,12.48,4.75,57.38,16.79,75.6,3.49,5.27,10.75,10.53,16.07,14.18,27.61,18.93,65.8,22.7,98.13,26.62,34.1,4.13,67.68,7.35,101.42,9,25.3,1.24,50.7,1.6,76.47.77,56.87-1.82,116.35-.53,172.06-13,58-13.05,123-27,151.66-84.19,13.83-27.55,16.87-57.55,19.18-87.8C1326.05,694.32,1328.26,645.86,1325.12,596.17Z"/></g></g></g></mask><radialGradient id="radial-gradient-2" cx="932.6" cy="403.8" r="808.3" gradientTransform="translate(-14.72) scale(1.01 1)" gradientUnits="userSpaceOnUse"><stop offset="0.17" stop-color="#181415"/><stop offset="0.8" stop-color="#181415"/><stop offset="1" stop-color="#181415"/></radialGradient></defs><g class="cls-4"><g id="Capa_2" data-name="Capa 2"><g id="template"><g class="cls-5"><rect class="cls-6" y="337.05" width="1283.11" height="818.76"/><g class="cls-7"><g class="cls-8"><path class="cls-9" d="M660.06-69.87c7.8,18.74,17.45,35.2,19.82,55.87,4.58,40-.56,81.14-10.19,120.05-11.21,45.26-31.53,88.21-36.65,134.62-6.43,58.3,4.86,118.7,20,175,25.36,94.14,31.07,191.41,25.38,288.42-1.76,30-2.52,53.69.67,85.42,1.22,12.2,4.71,56.12,16.66,73.94,3.46,5.15,10.67,10.31,16,13.87,27.4,18.52,65.31,22.21,97.4,26,59.21,7.08,116.86,11.44,176.56,9.56,56.44-1.78,115.47-.52,170.77-12.77,57.61-12.76,122-26.44,150.52-82.34,13.73-27,16.75-56.31,19-85.89,3.76-48.56,6-96,2.84-144.57-2.91-45.33-2.85-90.8-8.43-135.93-5.63-45.54-14.07-90.66-19.33-136.28-5.66-49.09-13.52-97.2-23.52-145.6-7.18-34.71-12.76-70.5-25.27-103.85-5.62-15-13.11-33.93-20.81-47C1205.86-24.83,1107-60.23,1065-70.68a534.93,534.93,0,0,0-80.78-13.57c-22.55-2.08-43.4-6.18-66.1-3.75-50.05,5.36-97.28,16.71-148.31,12.35-12.24-1-22.51-4.9-34.88-4.14-11.4.7-22.7,3.32-34.09,4.12C690.15-74.93,675.11-78.33,660.06-69.87Z" transform="translate(46.67 374.71)"/><path class="cls-10" d="M599.16,642.3c9.93-19.16,15.36-40.68,28.08-58.51,10.15-14.25,34.1-43.31,53.81-45,18.26-1.53,38.73,17.77,55.88,23.34,22.88,7.43,36.14,6.12,56.11-6.38,101.86-63.73,148.56,94.39,96.82,161.89C865.13,749.93,796.52,772.23,762,745.1c-33-25.91-42.66-69.54-85.63-86.7-21.75-8.68-40.47,4.58-60.46-1.25C607.62,654.73,600.73,652.18,599.16,642.3Z" transform="translate(46.67 374.71)"/><path class="cls-10" d="M1003.16,61.76c-11.57-29.38-35.49-50.54-54.86-75.23C928-39.36,905.58-78,868.28-79.11,841-79.93,797.47-65.65,782.09-42.3c-10.53,16-6.23,39.08-.5,56.34,6.65,20.05,15.77,34.17,15.19,55.71-.31,11.7-2.54,21-6.45,29.16-5.72-5.54-11.49-11-15.47-17C752.13,47.73,761.78-8.76,731-37.77a66.05,66.05,0,0,0-55.47-17.15c-26.64,4.22-61.92,24-71,49.51-8.11,22.83.71,43.5-.2,81-16.76,14.23-18.72,72.93-11.26,92.16,19.58,50.45,78.08-.61,109,22.64l.29.22a16.79,16.79,0,0,1,6.2,15.67c-1.77,13.46.57,28.15,8.56,44.57,11.72,24.07,29.7,39.62,51.39,54.84,17.71,12.44,20.15,14.48,16,34.41-16.87,81.66,35.81,149.26,88.24,206.4,2.67,18.28,13.45,39.59,35.29,28.55,32.23-33.16,46.5-97.62,59.82-140.62,9-29.14,20.79-57.18,26.22-87.29,10.6-58.74,17.24-114.4,18.74-173.93C1013.77,137.44,1016.54,95.72,1003.16,61.76Z" transform="translate(46.67 374.71)"/><path class="cls-11" d="M861,338.53c0-47.56,1.45-90.68-35.45-127-11.16-11-26-15.61-38.91-24.3-22.67-15.3-20.11-29.09-21.89-53.51-4.11-56.63-78.15-50.25-94.37-99.27-12.21-36.89,15.43-75.1,41.79-98.55,62.26-55.4,153.14-49.24,223.71-13.85,94.63,47.47,178.1,127.29,224.88,220.31,36.54,72.66,41.5,161,44.67,239.91,3.21,79.68,5.87,149.25-31.62,217.16-34.54,62.55-96.1,95.44-170,93.37-71.09-2-147.76,3.4-202.12-48.95-40.46-39-87.63-99.33-76.09-158.32,9.81-50.1,26.57-88.46,79.15-99C845.62,378.32,855.94,374.64,861,338.53Z" transform="translate(46.67 374.71)"/><path class="cls-12" d="M958.94,3.36c15.38,29.7-4.93,75.83-31,94.22-33.88,23.87-75.16,23.59-106.77,52.59-20.06,18.4-40.7,50-39.68,77.88,1.52,41.79,76.19,83.3,54.07,123.45C828.8,363.75,813,374,801.6,381.9c-41.08,28.6-64.29,77.57-47.08,126.91,11.19,32.08,44,48.07,47.45,85.44,2,21.52-11.2,33.39-25.78,47.38-13.5,13-24.15,22.58-42.19,12.8-18.19-9.86-27.59-22.33-51.65-17.87-38.37,7.12-53.82,49.52-45.85,83.54,7,30.16,46.45,48.46,73.09,57.38,72.14,24.15,152.82,16.28,218.56-19.73,59.31-32.49,110.11-99.63,134.63-160.78,10-25,11.89-51.87,20.9-77.08q.36-14.43,12-19.61a1113.63,1113.63,0,0,0-10.51-200.1c-11.75-92.37-25.42-150.55-65.87-225.24C1013.89,65,977.78,13,958.94,3.36Z" transform="translate(46.67 374.71)"/><path class="cls-13" d="M612.67,825.4c-13.09-33.83,1.36-65.55,22.9-92.76,11.89-15,24.13-24.3,42.78-29.9,21-6.3,49.21-8,69-11.68,26.35-4.95,113.26-16.16,123.16-50.14,10.39-35.69-19-68.59-28-100.87-5.5-19.66-8.93-45.6-4.38-66,6.25-28,26.93-38.14,50.3-51.37,71.3-40.36,130.83-136.11,35.76-184.59-29.57-15.08-72.89-26.33-63.58-68.76,6.56-29.85,41-38.26,37.6-73-2.57-26.72-24.22-51.94-42.23-72.1C829-5.83,768.64-29.52,786.45-78.54c20.83-57.3,86.59-112.14,135.22-145.89a870.23,870.23,0,0,1,136.09-77.48c86-39.08,202.13-46.23,292.14-19.93,38.06,11.11,74.45,28.47,109.41,46.9,50.47,26.62,96.14,54.89,140.07,90.93,24.89,20.41,49,41.75,73.15,62.95q23.29,21.28,47.82,41.21L1733-76.21l47.25,64.89a1452.37,1452.37,0,0,1,151.26,455.66q31.65,66-4.27,114.63a385.61,385.61,0,0,0-13.74,46.55c-20.3,67.18-58,121.31-114.15,164.68-186.8,144.3-410.88,217.95-649,212.63-115.63-2.59-236.45-19.61-346.88-53.32-35-10.69-72.28-20.81-101.65-43.29-11.64-8.91-20.67-21.93-32-30.71-10.36-8-23.69-11.27-33.87-19.93C629.05,829.74,625.27,822.53,612.67,825.4Z" transform="translate(46.67 374.71)"/><path class="cls-14" d="M841.34,851.66C783.93,807.83,730,753.44,752.73,676.84c8.46-28.52,27.89-55,54.76-69.76,23.1-12.67,52.21-11.9,74.38-27.59,28.72-20.34,38.71-52.75,38.85-85.4.09-21.37-.48-37.7,7.23-57.58,11.28-29.08,45.25-44.36,55.34-72.24,8.38-23.14-3.57-50.22-1.91-73.68,2.93-41.64,44.05-55.12,73-77.44,31.3-24.14,66.15-52.48,74-92.28,6.64-33.76.4-84.56-23.81-111-27-29.5-73.29-46.74-111.7-33.93-41,13.66-47.08,47.7-73.68,77.09-25.55,28.24-56.93,46.13-91.4,17.42-26.37-22-33.46-38-70.86-36.23-16.69.79-37,4.46-53.1,3.81-21.32-.86-38.61-21.22-53.22-34.3-31-27.7-66.9-60.44-67.52-104.58-.18-12.69,3.18-32.53,6.69-44.66,20.2-69.8,86.3-130,147.58-166.3,106.9-63.4,225.82-69.87,347.87-58,209.77,20.44,418.61,111.22,549.23,276C1707.18-2.11,1753.78,114.56,1766.85,229c10.88,95.23-4.64,198.73-25.64,291.77-24.65,109.26-50.54,228.08-131,312.62-24.42,25.65-52.2,44.94-82.7,63.17-44.25,26.46-92.11,36.19-141.13,51.46-29.78,9.27-59.47,10.77-90.76,12.65-85.39,5.12-219.48,2-300.6-40.63-11.94-6.27-23.66-15.28-35-22.18-16.23-9.84-34.49-17.07-53-22C887.57,870.66,868.79,855.32,841.34,851.66Z" transform="translate(46.67 374.71)"/><path class="cls-15" d="M974.14,768c-19.72-23.84-41.87-44.69-54-73-11.79-27.45-22-59.12-23.73-89-3.15-53.4,36.89-86.36,64.13-128.94,13.27-20.75,29.57-41,30.26-66.43.82-30-23.36-55.11-33.29-82.48-12.66-34.89-10.58-76.32,12.76-106.31,16.84-21.64,40.64-31.16,61.24-48.1,35.22-29,70.61-86.7,35.7-127.34-17-19.76-43.25-35.22-69.19-38.56C965,3.52,923,17,896-5.71c-19.67-16.54-33.5-38.93-54.82-54.17C823-72.86,803.5-75.54,784-85.42,759.56-97.78,740.28-123.5,736-150.06c-7.65-47.75,40.77-89.84,75.68-115.72,114-84.48,248.65-109.41,389.92-108,124.94,1.28,213.76,49,308.79,122l15.72,12q10.13,15.12,26.87,12.18A1445.67,1445.67,0,0,1,1719.83,146.2q85.76,210.32,85.63,433.38c-40.27,94-95.4,186.77-190.38,237.34-84.56,45-180.56,62.52-275.65,70.93-80.73,7.14-141.13-7.33-208.77-49.6-25.24-15.77-43-32.73-72.36-40.7-15.32-4.15-31.88-6.15-46.68-10.21C997.6,783.5,988.85,774.11,974.14,768Z" transform="translate(46.67 374.71)"/><path class="cls-16" d="M913.33,799.15c-19.36-25-35.35-54-36-85.93-.91-48,27.81-63.79,67.84-72.77,32.27-7.24,74.65-11.19,89.75-44.87,24.23-54-48-99.91,6.5-147,16.49-14.24,35.83-26.59,42.63-48.05,2.62-8.26,4-20.4,4.07-33.13a107.74,107.74,0,0,1,64.4-97.62c22.21-9.88,43.12-21.66,54.34-46.21,15.67-34.3,23.66-66.8,22.32-104.63-1.08-30.62-22.61-78.34-57.25-86.2-36.81-8.35-70.45,13-105.23,18C1052,52.92,1043.35,49,1032,40.58c-22-16.46-44.18-22.29-67.33-34.7-29.24-15.66-40.18-53.27-44.48-83-10.08-69.73,23.49-111.56,83.63-147.26,78.74-46.74,164-52.43,249.72-19.07,119,46.31,178.43,172.07,213.09,285.59,28.38,92.94,36.08,194.54,30.42,291-3.93,67.1-37,132.3-69.88,190.82-17.7,31.53-29.8,65.29-47.72,96.68-6.38,11.17-10.78,22.34-16,33.28q1.1,23.15-30.57,33.31a740.62,740.62,0,0,1-127.53,92.4c-31.87,19.67-44.06,30.05-77.71,32.09-8.28.5-16.87.73-25.15.67-18.69-.14-36-1.74-54.64.25-32,3.42-56.17,0-87.29-5C946.53,805.46,931.38,807.75,913.33,799.15Z" transform="translate(46.67 374.71)"/><path class="cls-17" d="M849.15,835.25c-15.06-55.39,12.65-122.14,73-136.76,31-7.51,69-4.25,81.62-40.11,9.73-27.53-3.38-55,14.34-81.77,22.36-33.73,73.51-27.2,104.53-48,30.47-20.47,30.59-42.38,30.52-76,0-18.51-.19-35.7,6.71-53,12.28-30.67,35.87-39.48,57.14-59.88,23.46-22.51,30.75-57.18,35.93-87.87,8-47.24,6.25-117.26-34.63-151.46-30.64-25.63-82.12-13.06-92.21-56.78-5.42-23.53-13.88-29.91-35.49-44.87C1078-10,1065.27-17.38,1055.36-29.39c-7.22-8.75-10.56-25.29-19.67-29.52,11.82-47.18,76-95.9,117.87-111.3,41.44-15.23,59.49-12.14,95.94,2.51,45.86,18.43,85.3,66.54,115.49,103,44.13,53.23,75.64,119.65,103.09,182.31,27.54,62.9,58.17,128.18,78.87,193.54,20.33,64.16,29.91,138.12,28.39,205.16C1574,577,1526.87,630.15,1499,681.39c-23.55,43.3-44.76,81-82.69,114-40.82,35.47-90.52,64.89-140.06,87.49-48.44,22.09-102.73,29-155.38,34.61-51.44,5.46-106.58,17.52-158.33,12.6-30.78-2.92-62.06-8-79.62-34.47C873.3,881.12,858.7,860.5,849.15,835.25Z" transform="translate(46.67 374.71)"/></g><g class="cls-18"><path class="cls-19" d="M1325.12,596.17c-2.93-46.34-2.87-92.82-8.5-139-5.67-46.55-14.17-92.68-19.47-139.32-5.7-50.18-13.62-99.36-23.7-148.84C1266.22,133.55,1260.6,97,1248,62.87c-5.66-15.32-13.2-34.69-21-48-25.84-44.48-125.49-80.67-167.76-91.36-7.59-1.91-15.16-3.62-22.74-5.18a543.39,543.39,0,0,0-58.66-8.68c-21.39-2-41.28-5.84-62.62-4.2-1.32.1-2.64.22-4,.36C878.72-90.7,847.33-84.63,815.34-82a312.82,312.82,0,0,1-53.49.35c-12.33-1.07-22.69-5-35.15-4.24-11.48.72-22.86,3.4-34.34,4.21-10.76.77-25.92-2.71-41.08,5.93,7.86,19.16,17.58,36,20,57.12a284,284,0,0,1,1.62,38.38c-.16,6.93-.57,13.86-1.17,20.78A421.69,421.69,0,0,1,661,104.14c-6.61,27.11-16.37,53.41-24.36,80.09l1.24-.21c-5,17.28-9.17,34.74-11.13,52.72-6.47,59.59,4.9,121.33,20.18,178.89a811.82,811.82,0,0,1,22.78,127,32.14,32.14,0,0,0-3.09,1.14,982.9,982.9,0,0,1,5.23,98.76q.13,33.63-1.72,67.3c-.1,1.89-.19,3.79-.3,5.68-1.78,30.65-2.54,54.88.67,87.31,1.23,12.48,4.75,57.38,16.79,75.6,3.49,5.27,10.75,10.53,16.07,14.18,27.61,18.93,65.8,22.7,98.13,26.62,34.1,4.13,67.68,7.35,101.42,9,25.3,1.24,50.7,1.6,76.47.77,56.87-1.82,116.35-.53,172.06-13,58-13.05,123-27,151.66-84.19,13.83-27.55,16.87-57.55,19.18-87.8C1326.05,694.32,1328.26,645.86,1325.12,596.17Z" transform="translate(46.67 374.71)"/></g></g></g></g></g></g></svg>